<?xml version="1.0" encoding="UTF-8"?>
<svg width="32" height="32" viewBox="0 0 32 32" fill="none" xmlns="http://www.w3.org/2000/svg">
  <!-- Fond -->
  <rect width="32" height="32" rx="6" fill="#1A1A1A"/>
  
  <!-- Symbole de sécurité stylisé -->
  <path d="M16 4L4 8V16C4 22.6274 9.37258 28 16 28C22.6274 28 28 22.6274 28 16V8L16 4Z" 
        stroke="#00FF00" 
        stroke-width="2" 
        fill="none"/>
  
  <!-- Lignes de circuit -->
  <path d="M16 8L8 12M16 8L24 12M16 8V16M8 12V16M24 12V16" 
        stroke="#00FF00" 
        stroke-width="1.5" 
        stroke-linecap="round"/>
  
  <!-- Points de connexion -->
  <circle cx="16" cy="8" r="2" fill="#00FF00"/>
  <circle cx="8" cy="12" r="1.5" fill="#00FF00"/>
  <circle cx="24" cy="12" r="1.5" fill="#00FF00"/>
  <circle cx="16" cy="16" r="1.5" fill="#00FF00"/>
  <circle cx="8" cy="16" r="1" fill="#00FF00"/>
  <circle cx="24" cy="16" r="1" fill="#00FF00"/>
</svg> 